<svg width="89" height="74" viewBox="0 0 89 74" fill="none" xmlns="http://www.w3.org/2000/svg">
<g clip-path="url(#clip0_103_35)">
<path fill-rule="evenodd" clip-rule="evenodd" d="M57.007 13.3155C57.007 21.5364 49.7896 21.5147 44.9896 29.8704C44.9138 20.539 51.6778 15.8636 51.9683 15.6709L50.7148 13.7807C50.4242 13.9772 44.547 17.9948 43.0591 25.9811C42.3212 21.5678 42.4175 16.3634 44.9176 12.6734C47.8013 8.49555 54.0827 9.05596 57.007 9.05596V13.315V13.3155ZM57.007 30.6003C52.6511 30.6003 49.8697 30.2586 46.2778 32.3768C48.3829 27.2113 54.4392 23.3551 56.3388 21.4535C57.2937 20.2965 57.007 18.3965 57.007 30.6003ZM42.0734 31.5489C42.5219 33.0996 41.6855 30.6003 36.3368 30.6003H32.0805V9.0565C34.6683 9.0565 40.0975 8.54537 43.0061 11.4562C39.2027 16.5339 40.157 25.2226 42.0734 31.5489ZM44.5432 2.25264C49.8242 2.25264 52.6652 6.79973 52.2443 6.79973C50.4448 6.88528 48.6843 7.28812 46.7533 8.2963C43.5699 10.4253 45.3071 9.84431 42.187 8.21292C40.5087 7.37367 38.8369 6.88691 36.8394 6.79973C36.4261 6.79973 39.2643 2.25264 44.5437 2.25264H44.5432ZM54.9251 6.78836C50.9734 -2.26468 38.1114 -2.26089 34.1613 6.78836C28.3825 6.78836 29.8141 3.83367 29.8141 31.7346C29.8141 33.2474 31.2489 32.8679 36.3368 32.8679C41.7569 32.8679 42.774 36.2167 44.8916 36.2167V36.2135C44.9436 36.2135 45.1643 36.0808 45.1713 36.0808C48.9018 32.3475 52.9141 32.8679 58.1404 32.8679C59.7554 32.8679 59.2728 32.8478 59.2728 7.9227C59.2728 6.32109 57.0221 6.7889 54.9262 6.7889L54.9251 6.78836Z" fill="#476DCF"/>
<path fill-rule="evenodd" clip-rule="evenodd" d="M3.93596 44.7272H5.53634L7.83032 49.7248L10.1351 44.7272H11.7252V52.1916H10.1779V47.9521L8.20363 52.1916H7.45646L5.49306 47.9521V52.1916H3.93542V44.7272H3.93596ZM15.3528 44.7272H16.9429L19.9197 52.1916H18.2658L17.6257 50.5684H14.6701L14.03 52.1916H12.3653L15.3528 44.7272ZM17.1988 49.2759L16.1427 46.4355L15.0861 49.2759H17.1988ZM20.8162 44.7272H22.4382V47.9732L25.2554 44.7272H27.1869L24.0283 48.3685L27.4 52.1911H25.4685L22.4382 48.7632V52.1911H20.8162V44.7267V44.7272ZM29.7043 46.0835H27.5277V44.7272H33.5029V46.0835H31.3263V52.1916H29.7043V46.0835ZM35.6584 44.7272H37.2484L40.2252 52.1916H38.5713L37.9312 50.5684H34.9756L34.3355 52.1916H32.6708L35.6584 44.7272ZM37.5044 49.2759L36.4483 46.4355L35.3916 49.2759H37.5044ZM41.1217 44.7272H44.7818C45.4862 44.7272 46.0375 44.9016 46.4357 45.2503C46.8339 45.599 47.033 46.1047 47.033 46.7663C47.033 47.1009 46.9546 47.4052 46.7982 47.6792C46.6419 47.9532 46.4282 48.1649 46.1582 48.3143C46.5282 48.4497 46.8053 48.6544 46.9903 48.9283C47.1753 49.2023 47.2678 49.5602 47.2678 50.0015C47.2678 50.4498 47.1667 50.8396 46.9638 51.171C46.7609 51.5018 46.4839 51.7547 46.1317 51.929C45.7795 52.1034 45.3899 52.1906 44.963 52.1906H41.1217V44.7261V44.7272ZM44.4723 47.7599C44.7569 47.7599 44.9809 47.6884 45.1448 47.5465C45.3082 47.4041 45.3905 47.1762 45.3905 46.8632C45.3905 46.5216 45.3104 46.2866 45.1502 46.1583C44.9901 46.0299 44.7466 45.9661 44.4193 45.9661H42.7443V47.7599H44.4729H44.4723ZM44.5686 50.9528C44.917 50.9528 45.1822 50.8835 45.3634 50.7444C45.5446 50.6057 45.6355 50.3615 45.6355 50.0129C45.6355 49.6566 45.5414 49.4005 45.3526 49.244C45.1643 49.0875 44.8846 49.009 44.5151 49.009H42.7437V50.9523H44.5686V50.9528ZM51.9948 52.3519C51.1979 52.3519 50.494 52.1933 49.8821 51.8765C49.2702 51.5598 48.7973 51.1093 48.463 50.5256C48.1286 49.9419 47.9614 49.2548 47.9614 48.4648C47.9614 47.6749 48.1286 46.9856 48.463 46.3987C48.7973 45.8112 49.2702 45.3591 49.8821 45.0423C50.494 44.7256 51.1979 44.5669 51.9948 44.5669C52.5353 44.5669 53.0136 44.6222 53.4302 44.7326C53.8463 44.8431 54.2288 45.0158 54.5772 45.2508V46.7993C54.2645 46.5432 53.9069 46.3564 53.5049 46.2389C53.1029 46.1214 52.6457 46.063 52.1339 46.063C51.6572 46.063 51.2287 46.161 50.8479 46.3564C50.4675 46.5524 50.1667 46.8318 49.9459 47.1946C49.7257 47.5579 49.6154 47.9813 49.6154 48.4654C49.6154 48.9565 49.7166 49.3853 49.9194 49.7524C50.1223 50.119 50.4085 50.4022 50.7786 50.6014C51.1487 50.8007 51.5755 50.9003 52.0592 50.9003C52.5002 50.9003 52.8843 50.8218 53.2116 50.6653V49.2234H52.0057V48.0274H54.7801V51.6258C54.0757 52.1099 53.1472 52.3519 51.9948 52.3519ZM58.4613 44.7272H60.0514L63.0281 52.1916H61.3742L60.7341 50.5684H57.7785L57.1384 52.1916H55.4737L58.4613 44.7272ZM60.3073 49.2759L59.2512 46.4355L58.1945 49.2759H60.3073ZM67.1578 52.3514C66.3609 52.3514 65.657 52.1927 65.0451 51.876C64.4332 51.5592 63.9603 51.1087 63.626 50.5251C63.2916 49.9414 63.1244 49.2543 63.1244 48.4643C63.1244 47.6743 63.2916 46.9851 63.626 46.3981C63.9603 45.8107 64.4332 45.3585 65.0451 45.0418C65.657 44.725 66.3609 44.5664 67.1578 44.5664C68.189 44.5664 69.0498 44.8014 69.7402 45.2714V46.8091C69.4275 46.5459 69.0698 46.3554 68.6679 46.2379C68.2659 46.1204 67.8087 46.0619 67.2969 46.0619C66.5216 46.0619 65.908 46.2774 65.4563 46.7078C65.0045 47.1383 64.7789 47.7241 64.7789 48.4643C64.7789 49.212 65.0067 49.8006 65.4617 50.2316C65.9167 50.6626 66.5286 50.8775 67.2969 50.8775C67.8233 50.8775 68.2891 50.8153 68.6949 50.6907C69.1001 50.5662 69.4772 50.3648 69.8262 50.0876V51.6253C69.1716 52.1093 68.2826 52.3514 67.1584 52.3514H67.1578ZM70.7324 44.7267H72.3545V47.7166H75.6088V44.7267H77.2308V52.1911H75.6088V49.0621H72.3545V52.1911H70.7324V44.7267ZM81.1143 44.7267H82.7044L85.6812 52.1911H84.0272L83.3872 50.5678H80.4315L79.7915 52.1911H78.1267L81.1143 44.7267ZM82.9603 49.2754L81.9042 46.4349L80.8476 49.2754H82.9603ZM13.5404 55.5519H15.269L17.3179 60.8592L19.377 55.5519H21.0948L18.1181 63.0163H16.528L13.5404 55.5519ZM23.325 55.5519H24.9151L27.8918 63.0163H26.2379L25.5978 61.3931H22.6422L22.0021 63.0163H20.3374L23.325 55.5519ZM25.171 60.1006L24.1149 57.2602L23.0582 60.1006H25.171ZM32.5225 55.5519H34.1229L36.4169 60.5495L38.7217 55.5519H40.3118V63.0163H38.7644V58.7768L36.7902 63.0163H36.043L34.0796 58.7768V63.0163H32.522V55.5519H32.5225ZM43.9394 55.5519H45.5295L48.5063 63.0163H46.8523L46.2123 61.3931H43.2566L42.6166 63.0163H40.9518L43.9394 55.5519ZM45.7854 60.1006L44.7293 57.2602L43.6727 60.1006H45.7854ZM49.4028 55.5519H51.0248V58.7979L53.8419 55.5519H55.7734L52.6149 59.1931L55.9866 63.0158H54.0551L51.0248 59.5879V63.0158H49.4028V55.5513V55.5519ZM58.2908 56.9082H56.1143V55.5519H62.0894V56.9082H59.9129V63.0163H58.2908V56.9082ZM64.2449 55.5519H65.835L68.8118 63.0163H67.1578L66.5178 61.3931H63.5621L62.9221 63.0163H61.2573L64.2449 55.5519ZM66.0909 60.1006L65.0348 57.2602L63.9782 60.1006H66.0909ZM69.7083 55.5519H73.3683C74.0728 55.5519 74.6241 55.7262 75.0223 56.0749C75.4205 56.4236 75.6196 56.9293 75.6196 57.591C75.6196 57.9256 75.5411 58.2299 75.3848 58.5039C75.2284 58.7778 75.0147 58.9896 74.7447 59.139C75.1148 59.2744 75.3918 59.479 75.5769 59.753C75.7619 60.027 75.8544 60.3849 75.8544 60.8262C75.8544 61.2745 75.7532 61.6643 75.5503 61.9957C75.3474 62.3265 75.0704 62.5794 74.7182 62.7537C74.366 62.9281 73.9765 63.0152 73.5496 63.0152H69.7083V55.5508V55.5519ZM73.0589 58.5845C73.3435 58.5845 73.5674 58.5131 73.7314 58.3712C73.8948 58.2288 73.977 58.0009 73.977 57.6879C73.977 57.3463 73.8969 57.1113 73.7368 56.9829C73.5766 56.8546 73.3332 56.7907 73.0059 56.7907H71.3308V58.5845H73.0594H73.0589ZM73.1552 61.7775C73.5036 61.7775 73.7687 61.7082 73.95 61.569C74.1312 61.4304 74.2221 61.1862 74.2221 60.8375C74.2221 60.4812 74.128 60.2251 73.9391 60.0687C73.7509 59.9122 73.4711 59.8337 73.1016 59.8337H71.3303V61.7769H73.1552V61.7775ZM2.17706 67.7334H0.000488281V66.3771H5.97566V67.7334H3.79908V73.8415H2.17706V67.7334ZM8.13113 66.3771H9.72123L12.698 73.8415H11.0441L10.404 72.2183H7.44835L6.80831 73.8415H5.14355L8.13113 66.3771ZM9.97714 70.9258L8.92104 68.0854L7.8644 70.9258H9.97714ZM16.5285 66.3771H18.1505V72.4852H21.565V73.8415H16.5285V66.3771ZM22.2586 66.3771H23.8806V73.8415H22.2586V66.3771ZM25.0011 66.3771H26.6015L28.8954 71.3747L31.2002 66.3771H32.7903V73.8415H31.243V69.602L29.2688 73.8415H28.5216L26.5582 69.602V73.8415H25.0005V66.3771H25.0011ZM33.9108 66.3771H35.5328V73.8415H33.9108V66.3771ZM40.1744 66.3771H41.903L43.9518 71.6844L46.011 66.3771H47.7288L44.752 73.8415H43.1619L40.1744 66.3771ZM49.9589 66.3771H51.549L54.5258 73.8415H52.8719L52.2318 72.2183H49.2762L48.6361 73.8415H46.9714L49.9589 66.3771ZM51.8049 70.9258L50.7488 68.0854L49.6922 70.9258H51.8049ZM55.049 72.7624L58.6982 67.7329H55.1453V66.3766H60.7044V67.466L57.0768 72.4847H60.9181V73.841H55.0495V72.7624H55.049ZM61.8243 66.3766H63.4463V73.841H61.8243V66.3766ZM64.5668 66.3766H67.8C68.6468 66.3766 69.3063 66.5883 69.7791 67.0117C70.252 67.4351 70.489 68.0458 70.489 68.8429C70.489 69.3984 70.3607 69.87 70.1048 70.2577C69.8489 70.6459 69.4859 70.9285 69.0163 71.1067L70.4354 73.8404H68.7707L67.4581 71.3097H66.1883V73.8404H64.5663V66.376L64.5668 66.3766ZM67.5117 69.9539C67.9239 69.9539 68.2496 69.8651 68.4882 69.687C68.7263 69.5089 68.8459 69.2278 68.8459 68.8434C68.8459 68.4379 68.7284 68.1509 68.4936 67.9836C68.2588 67.8163 67.9315 67.7329 67.5122 67.7329H66.1888V69.9539H67.5122H67.5117ZM71.3957 66.3766H73.0178V72.4847H76.4322V73.841H71.3957V66.3766ZM77.1258 66.3766H78.7478V73.841H77.1258V66.3766ZM83.688 74.0013C82.8911 74.0013 82.1872 73.8426 81.5753 73.5259C80.9634 73.2091 80.4905 72.7586 80.1561 72.1749C79.8218 71.5913 79.6546 70.9042 79.6546 70.1142C79.6546 69.3242 79.8218 68.6349 80.1561 68.048C80.4905 67.4605 80.9634 67.0084 81.5753 66.6917C82.1872 66.3749 82.8911 66.2163 83.688 66.2163C84.2285 66.2163 84.7068 66.2715 85.1234 66.382C85.5394 66.4924 85.9219 66.6651 86.2704 66.9001V68.4487C85.9576 68.1926 85.6 68.0058 85.198 67.8883C84.7961 67.7708 84.3389 67.7123 83.8271 67.7123C83.3504 67.7123 82.9219 67.8103 82.541 68.0058C82.1607 68.2018 81.8599 68.4812 81.6391 68.8439C81.4189 69.2073 81.3085 69.6307 81.3085 70.1147C81.3085 70.6058 81.4097 71.0347 81.6126 71.4018C81.8155 71.7683 82.1017 72.0515 82.4718 72.2508C82.8418 72.45 83.2687 72.5496 83.7524 72.5496C84.1933 72.5496 84.5775 72.4711 84.9048 72.3146V70.8728H83.6988V69.6767H86.4732V73.2752C85.7688 73.7592 84.8404 74.0013 83.688 74.0013ZM87.38 66.3766H89.002V73.841H87.38V66.3766ZM14.0755 66.2163H15.6228L14.7582 68.3307H13.3819L14.0755 66.2163Z" fill="#476DCF"/>
</g>
<defs>
<clipPath id="clip0_103_35">
<rect width="89" height="74" fill="white"/>
</clipPath>
</defs>
</svg>
